<svg xmlns="http://www.w3.org/2000/svg" xmlns:xlink="http://www.w3.org/1999/xlink" width="500" zoomAndPan="magnify" viewBox="0 0 375 374.999991" height="500" preserveAspectRatio="xMidYMid meet" version="1.0"><defs><clipPath id="785ac8ce6f"><path d="M 29.0625 9 L 346.3125 9 L 346.3125 375 L 29.0625 375 Z M 29.0625 9 " clip-rule="nonzero"/></clipPath><clipPath id="367c5bcf5b"><path d="M 265 2 L 346.3125 2 L 346.3125 65 L 265 65 Z M 265 2 " clip-rule="nonzero"/></clipPath></defs><g clip-path="url(#785ac8ce6f)"><path fill="#064e3b" d="M 256.148438 73.675781 L 187.6875 34.203125 L 50.839844 113.109375 L 50.839844 271.027344 L 119.261719 310.496094 L 119.261719 310.53125 L 187.6875 349.96875 L 256.113281 310.496094 L 256.113281 310.460938 L 324.535156 271.027344 L 324.535156 113.109375 Z M 193.113281 12.28125 L 346.3125 100.636719 L 346.3125 283.535156 L 267 329.261719 L 266.964844 329.261719 L 187.6875 374.984375 L 108.410156 329.261719 L 108.375 329.261719 L 29.0625 283.535156 L 29.0625 100.636719 L 187.6875 9.1875 Z M 193.113281 12.28125 " fill-opacity="1" fill-rule="evenodd"/></g><path fill="#064e3b" d="M 335.425781 106.890625 L 335.425781 277.28125 L 187.6875 362.476562 L 187.6875 192.085938 Z M 335.425781 106.890625 " fill-opacity="1" fill-rule="evenodd"/><path fill="#064e3b" d="M 45.410156 97.476562 L 213.535156 194.449219 L 202.644531 213.246094 L 34.523438 116.273438 Z M 45.410156 97.476562 " fill-opacity="1" fill-rule="evenodd"/><path fill="#064e3b" d="M 271 57.207031 L 130.847656 159.21875 L 130.847656 213.140625 L 96.792969 193.476562 L 96.792969 139.761719 L 259.902344 50.953125 Z M 271 57.207031 " fill-opacity="1" fill-rule="evenodd"/><g clip-path="url(#367c5bcf5b)"><path fill="#dc2626" d="M 275.941406 53.660156 L 294.480469 64.363281 C 302.898438 63.980469 311.351562 61.617188 319.144531 57.136719 C 336.574219 47.058594 346.3125 28.820312 346.3125 10.089844 C 330.066406 0.710938 309.371094 0.015625 291.941406 10.089844 C 277.46875 18.429688 268.285156 32.433594 265.574219 47.6875 L 265.679688 47.753906 C 280.425781 39.730469 304.222656 25.796875 318.378906 21.140625 L 319.386719 21.695312 Z M 275.941406 53.660156 " fill-opacity="1" fill-rule="evenodd"/></g></svg>