<svg xmlns="http://www.w3.org/2000/svg" xmlns:xlink="http://www.w3.org/1999/xlink" width="96" height="56.052" viewBox="0 0 96 56.052">
  <defs>
    <clipPath id="clip-path">
      <path id="Path_5" data-name="Path 5" d="M0,78.047H96V134.1H0Zm0,0" transform="translate(0 -78.047)"/>
    </clipPath>
  </defs>
  <g id="experience" clip-path="url(#clip-path)">
    <path id="Path_4" data-name="Path 4" d="M90,98.134H88v-4q0-.3-.029-.588t-.086-.583c-.039-.193-.086-.383-.143-.572s-.124-.373-.2-.554-.159-.359-.251-.533-.194-.342-.3-.5-.226-.321-.351-.473-.256-.3-.4-.437-.285-.27-.437-.395a5.783,5.783,0,0,0-.473-.351q-.244-.164-.5-.3a5.747,5.747,0,0,0-.532-.252q-.271-.112-.554-.2c-.188-.057-.379-.105-.571-.143a5.732,5.732,0,0,0-.583-.087q-.292-.028-.588-.029H78v-4q0-.3-.029-.589c-.019-.195-.048-.39-.086-.582s-.086-.384-.143-.572-.124-.373-.2-.555-.159-.359-.251-.532-.194-.342-.3-.5a5.785,5.785,0,0,0-.351-.473c-.125-.152-.256-.3-.4-.437a6.1,6.1,0,0,0-.91-.746,5.487,5.487,0,0,0-.505-.3,5.748,5.748,0,0,0-.532-.252q-.271-.112-.554-.2c-.188-.057-.379-.1-.571-.143s-.387-.067-.583-.086-.391-.029-.588-.029H66q-.3,0-.588.029t-.583.086c-.192.039-.383.086-.571.143s-.373.124-.554.2a5.747,5.747,0,0,0-.532.252,5.486,5.486,0,0,0-.505.3,6.1,6.1,0,0,0-.91.746c-.139.139-.27.285-.4.437a5.785,5.785,0,0,0-.351.473c-.109.163-.21.332-.3.5s-.176.351-.251.532-.142.367-.2.555-.1.379-.143.572-.067.387-.086.582-.029.392-.029.589V98.134H36V84.128q0-.3-.029-.589c-.019-.195-.048-.39-.086-.582s-.086-.384-.143-.572-.124-.373-.2-.555-.159-.359-.251-.532-.194-.342-.3-.5a5.785,5.785,0,0,0-.351-.473c-.125-.152-.256-.3-.4-.437a6.1,6.1,0,0,0-.91-.746,5.485,5.485,0,0,0-.5-.3,5.747,5.747,0,0,0-.532-.252q-.271-.112-.554-.2c-.188-.057-.379-.1-.571-.143s-.387-.067-.583-.086-.391-.029-.588-.029H24q-.3,0-.588.029t-.583.086c-.192.039-.383.086-.571.143s-.373.124-.554.2a5.748,5.748,0,0,0-.532.252,5.485,5.485,0,0,0-.5.3,6.1,6.1,0,0,0-.91.746c-.139.139-.27.285-.395.437a5.784,5.784,0,0,0-.351.473c-.109.163-.21.332-.3.5s-.176.351-.251.532-.142.367-.2.555-.1.379-.143.572-.067.387-.086.582-.029.392-.029.589v4H14q-.3,0-.588.029a5.732,5.732,0,0,0-.583.087c-.192.038-.383.086-.571.143s-.373.123-.554.2a5.747,5.747,0,0,0-.532.252q-.261.14-.5.3a5.783,5.783,0,0,0-.473.351c-.152.125-.3.256-.437.395s-.27.285-.395.437-.242.31-.351.473-.21.332-.3.5-.176.351-.251.533-.142.366-.2.554-.1.379-.143.572-.067.387-.086.583S8,93.935,8,94.132v4H6q-.3,0-.588.028t-.583.087c-.192.038-.383.086-.571.143s-.373.123-.554.2-.359.16-.532.252-.342.194-.5.3a5.784,5.784,0,0,0-.473.351q-.228.188-.437.4c-.139.139-.27.284-.395.436s-.242.31-.351.473-.21.332-.3.506-.176.35-.251.532-.142.367-.2.555-.1.378-.143.571-.067.387-.086.583S0,103.94,0,104.136v4c0,.2.01.393.029.588s.048.39.086.583.086.383.143.571.124.373.2.555.159.359.251.532.194.342.3.506.226.321.351.473.256.3.395.436.285.271.437.4a5.784,5.784,0,0,0,.473.351q.245.164.5.3t.532.251a5.707,5.707,0,0,0,.554.2c.188.057.379.1.571.143s.387.067.583.087.391.028.588.028H8v4q0,.3.029.588t.086.583c.039.193.086.383.143.572s.124.373.2.554.159.359.251.533.194.342.3.5.226.321.351.473.256.3.395.437.285.27.437.395a5.785,5.785,0,0,0,.473.351q.244.164.5.3a5.745,5.745,0,0,0,.532.252q.272.112.554.2c.188.057.379.1.571.143a5.734,5.734,0,0,0,.583.087q.293.028.588.029h4v4q0,.3.029.589c.019.2.048.39.086.582s.086.384.143.572.124.373.2.554.159.36.251.533.194.342.3.505a5.789,5.789,0,0,0,.351.473c.125.152.256.3.395.437a6.1,6.1,0,0,0,.91.746,5.483,5.483,0,0,0,.5.3,5.748,5.748,0,0,0,.532.252q.271.112.554.2c.188.057.379.1.571.143s.387.067.583.086.391.029.588.029h6q.3,0,.588-.029t.583-.086c.192-.039.383-.086.571-.143s.373-.124.554-.2a5.748,5.748,0,0,0,.532-.252,5.483,5.483,0,0,0,.5-.3,6.1,6.1,0,0,0,.91-.746c.139-.139.27-.285.4-.437a5.79,5.79,0,0,0,.351-.473c.109-.163.21-.332.3-.505s.176-.351.251-.533.142-.366.2-.554.1-.379.143-.572.067-.387.086-.582.029-.392.029-.589V114.14H60v14.006q0,.3.029.589c.019.2.048.39.086.582s.086.384.143.572.124.373.2.554.159.36.251.533.194.342.3.505a5.79,5.79,0,0,0,.351.473c.125.152.256.3.4.437a6.1,6.1,0,0,0,.91.746,5.484,5.484,0,0,0,.505.3,5.747,5.747,0,0,0,.532.252q.271.112.554.2c.188.057.379.1.571.143s.387.067.583.086.391.029.588.029h6q.3,0,.588-.029t.583-.086c.192-.039.383-.086.571-.143s.373-.124.554-.2a5.748,5.748,0,0,0,.532-.252,5.485,5.485,0,0,0,.505-.3,6.1,6.1,0,0,0,.91-.746c.139-.139.27-.285.4-.437a5.79,5.79,0,0,0,.351-.473c.109-.163.21-.332.3-.505s.176-.351.251-.533.142-.366.2-.554.1-.379.143-.572.067-.387.086-.582.029-.392.029-.589v-4h4q.3,0,.588-.029a5.734,5.734,0,0,0,.583-.087c.192-.038.383-.086.571-.143s.373-.123.554-.2a5.745,5.745,0,0,0,.532-.252q.261-.14.5-.3a5.784,5.784,0,0,0,.473-.351c.152-.125.3-.256.437-.395s.27-.285.4-.437.242-.31.351-.473.21-.332.3-.5.176-.351.251-.533.142-.366.2-.554.1-.379.143-.572.067-.387.086-.583.029-.391.029-.588v-4h2q.3,0,.588-.028t.583-.087c.192-.038.383-.086.571-.143a5.707,5.707,0,0,0,.554-.2q.273-.112.532-.251t.5-.3a5.784,5.784,0,0,0,.473-.351q.228-.187.437-.4c.139-.139.27-.284.395-.436s.242-.31.351-.473.21-.332.3-.506.176-.35.251-.532.142-.367.2-.555.1-.378.143-.571.067-.387.086-.583.029-.392.029-.588v-4c0-.2-.01-.393-.029-.588s-.048-.39-.086-.583-.086-.383-.143-.571-.124-.373-.2-.555-.159-.359-.251-.532-.194-.342-.3-.506-.226-.321-.351-.473-.256-.3-.395-.436-.285-.271-.437-.4a5.784,5.784,0,0,0-.473-.351q-.244-.164-.5-.3T92.3,98.59q-.271-.113-.554-.2c-.188-.057-.379-.1-.571-.143s-.387-.067-.583-.087S90.2,98.134,90,98.134ZM6,110.139a1.968,1.968,0,0,1-.39-.039,1.887,1.887,0,0,1-.375-.114,1.99,1.99,0,0,1-.9-.737,1.974,1.974,0,0,1-.185-.345A1.992,1.992,0,0,1,4,108.138v-4a1.992,1.992,0,0,1,.152-.766,2.024,2.024,0,0,1,.434-.649,2.006,2.006,0,0,1,.3-.249,1.943,1.943,0,0,1,.346-.184,1.887,1.887,0,0,1,.375-.114,1.969,1.969,0,0,1,.39-.039H8v8Zm8,10a1.983,1.983,0,0,1-.765-.152,2.008,2.008,0,0,1-.9-.737,1.983,1.983,0,0,1-.185-.346,2.063,2.063,0,0,1-.114-.376,2.03,2.03,0,0,1-.038-.39V94.132a2.03,2.03,0,0,1,.038-.39,2.063,2.063,0,0,1,.114-.376,1.982,1.982,0,0,1,.185-.346,2,2,0,0,1,.9-.737A1.983,1.983,0,0,1,14,92.131h4v28.012Zm18,8a1.983,1.983,0,0,1-.152.766,1.983,1.983,0,0,1-.185.346,2.014,2.014,0,0,1-.552.552,1.948,1.948,0,0,1-.346.185,1.982,1.982,0,0,1-.765.152H24a1.982,1.982,0,0,1-.765-.152,1.948,1.948,0,0,1-.346-.185,2.014,2.014,0,0,1-.552-.552,1.983,1.983,0,0,1-.185-.346,1.983,1.983,0,0,1-.152-.766V84.128a1.983,1.983,0,0,1,.152-.766,1.983,1.983,0,0,1,.185-.346,2.014,2.014,0,0,1,.552-.552,1.948,1.948,0,0,1,.346-.185A1.983,1.983,0,0,1,24,82.127h6a1.983,1.983,0,0,1,.765.152,1.948,1.948,0,0,1,.346.185,2.014,2.014,0,0,1,.552.552,1.983,1.983,0,0,1,.185.346,1.983,1.983,0,0,1,.152.766Zm4-18.007v-8H60v8Zm38,18.007a2,2,0,0,1-.337,1.112,2.014,2.014,0,0,1-.552.552,1.948,1.948,0,0,1-.346.185,1.983,1.983,0,0,1-.765.152H66a1.982,1.982,0,0,1-.765-.152,1.948,1.948,0,0,1-.346-.185,2.014,2.014,0,0,1-.552-.552,1.982,1.982,0,0,1-.185-.346,1.983,1.983,0,0,1-.152-.766V84.128a2,2,0,0,1,.337-1.112,2.014,2.014,0,0,1,.552-.552,1.948,1.948,0,0,1,.346-.185A1.983,1.983,0,0,1,66,82.127h6a1.983,1.983,0,0,1,.765.152,1.948,1.948,0,0,1,.346.185,2.014,2.014,0,0,1,.552.552,2.052,2.052,0,0,1,.185.346,1.982,1.982,0,0,1,.152.766Zm10-10a2.029,2.029,0,0,1-.038.39,2.063,2.063,0,0,1-.114.376,1.982,1.982,0,0,1-.185.346,2,2,0,0,1-.9.737,1.983,1.983,0,0,1-.765.152H78V92.131h4a1.983,1.983,0,0,1,.765.152,2.008,2.008,0,0,1,.9.737,1.982,1.982,0,0,1,.185.346,2.063,2.063,0,0,1,.114.376,2.029,2.029,0,0,1,.038.39Zm8-10a1.993,1.993,0,0,1-.152.766,2.024,2.024,0,0,1-.434.649,2.015,2.015,0,0,1-.649.433,1.887,1.887,0,0,1-.375.114,1.968,1.968,0,0,1-.39.039H88v-8h2a1.969,1.969,0,0,1,.39.039,1.887,1.887,0,0,1,.375.114,1.943,1.943,0,0,1,.346.184,2.006,2.006,0,0,1,.3.249,2.024,2.024,0,0,1,.434.649,1.992,1.992,0,0,1,.152.766Zm0,0" transform="translate(0 -78.105)" fill="#737373"/>
  </g>
</svg>
